<svg id="svg" version="1.1" xmlns="http://www.w3.org/2000/svg" width="400" height="407.29166666666663" viewBox="0, 0, 400,407.29166666666663">
    <defs>
        <linearGradient id="gradient" x1="0%" y1="0%" x2="100%" y2="100%">
            <stop offset="0%" style="stop-color:#667eea;stop-opacity:1"></stop>
            <stop offset="100%" style="stop-color:#764ba2;stop-opacity:1"></stop>
        </linearGradient>
    </defs>
    <g id="svgg">
        <path id="path0" d="M14.063 1.381 C 8.324 3.627,5.283 6.410,2.619 11.855 L -0.023 17.255 0.249 202.199 L 0.521 387.143 3.668 392.233 C 7.602 398.596,14.115 403.638,21.068 405.702 C 29.180 408.111,370.820 408.111,378.932 405.702 C 386.617 403.420,392.644 398.407,396.301 391.257 L 399.395 385.209 399.185 200.392 C 398.979 18.971,398.937 15.501,396.929 11.564 C 394.352 6.512,389.603 2.476,384.603 1.088 C 378.751 -0.538,18.236 -0.252,14.063 1.381 M294.508 29.717 C 302.773 37.981,293.807 51.015,282.971 46.488 C 275.484 43.359,274.085 33.959,280.324 28.709 C 285.043 24.738,289.873 25.081,294.508 29.717 M330.219 27.776 C 338.206 32.494,336.659 43.887,327.628 46.867 C 322.642 48.513,316.993 45.828,314.900 40.818 C 310.921 31.295,321.266 22.487,330.219 27.776 M369.375 29.583 C 375.435 35.644,373.368 44.148,365.177 46.851 C 354.207 50.471,346.445 36.180,355.324 28.709 C 359.990 24.782,364.878 25.087,369.375 29.583 M373.958 71.875 C 376.023 73.939,376.042 75.347,376.042 226.089 L 376.042 378.220 373.485 380.777 L 370.928 383.333 310.525 383.333 C 277.304 383.333,249.878 382.938,249.580 382.454 C 249.281 381.970,248.751 374.119,248.402 365.006 L 247.769 348.438 251.130 346.354 C 257.800 342.220,258.333 339.772,258.333 313.298 C 258.333 286.428,257.592 288.318,267.186 290.733 C 279.619 293.864,289.453 314.844,281.510 321.292 C 280.508 322.106,278.097 324.074,276.154 325.666 C 264.944 334.846,266.942 355.571,279.497 360.344 C 285.114 362.480,286.458 360.566,286.458 350.437 C 286.458 340.522,288.730 336.458,294.271 336.458 C 299.812 336.458,302.083 340.522,302.083 350.437 C 302.083 360.405,303.692 362.848,308.594 360.326 C 322.906 352.964,322.529 331.702,307.929 322.823 L 304.755 320.893 304.640 310.488 C 304.387 287.622,288.878 270.956,264.666 267.532 C 256.871 266.430,256.250 266.162,256.250 263.900 C 256.250 261.688,256.715 261.454,261.198 261.413 C 277.193 261.265,287.623 250.653,288.361 233.777 L 288.790 223.958 291.843 223.958 C 301.697 223.958,304.167 219.066,304.167 199.547 C 304.167 181.701,302.808 178.798,293.750 177.291 L 289.063 176.512 288.516 164.558 C 287.903 151.150,286.142 146.306,279.994 141.116 C 272.273 134.599,271.167 134.423,237.760 134.398 L 207.292 134.375 207.292 126.758 C 207.292 119.595,207.468 119.011,210.257 116.950 C 222.375 107.990,216.424 86.723,201.227 84.684 C 183.390 82.292,172.963 105.455,186.931 116.442 C 189.495 118.460,189.763 119.339,189.921 126.256 L 190.094 133.854 158.849 134.375 C 129.358 134.867,127.370 135.022,123.438 137.144 C 113.098 142.723,109.430 150.198,109.398 165.750 L 109.375 176.812 104.461 177.366 C 95.134 178.418,93.750 181.349,93.750 200.053 C 93.750 219.461,96.092 223.958,106.198 223.958 L 109.375 223.958 109.398 232.031 C 109.446 248.985,119.342 260.061,135.478 261.219 L 142.311 261.710 141.870 264.709 C 141.466 267.465,141.077 267.708,137.080 267.708 C 112.055 267.708,90.264 292.244,94.061 316.146 C 94.501 318.920,94.052 319.583,90.057 322.052 C 77.850 329.595,75.319 347.125,85.034 356.840 C 92.687 364.492,96.875 361.842,96.875 349.347 C 96.875 340.621,99.383 336.458,104.640 336.458 C 109.706 336.458,111.458 339.672,111.458 348.958 C 111.458 364.112,121.534 365.051,128.240 350.521 C 132.692 340.873,124.856 320.833,116.630 320.833 C 115.093 320.833,115.435 306.627,117.063 302.831 C 119.978 296.039,129.746 289.583,137.110 289.583 L 139.583 289.583 139.583 312.279 C 139.583 337.896,140.576 342.048,147.733 346.354 L 151.195 348.438 150.590 364.956 C 150.257 374.041,149.726 381.893,149.410 382.404 C 147.998 384.688,29.662 383.502,26.703 381.174 L 23.958 379.015 23.958 226.487 C 23.958 75.347,23.977 73.939,26.042 71.875 C 29.329 68.588,370.671 68.588,373.958 71.875 M265.625 157.292 C 268.484 160.151,268.906 233.243,266.087 237.268 L 264.465 239.583 199.748 239.583 L 135.030 239.583 132.619 237.318 L 130.208 235.054 130.208 197.688 L 130.208 160.322 132.765 157.765 L 135.322 155.208 199.432 155.208 C 262.153 155.208,263.587 155.253,265.625 157.292 M157.292 181.032 C 139.943 190.512,148.987 215.908,168.767 213.255 C 183.579 211.268,188.285 191.009,175.971 182.241 C 171.237 178.871,162.305 178.292,157.292 181.032 M222.758 181.269 C 214.600 185.579,211.482 197.340,216.392 205.285 C 225.975 220.790,250.450 212.767,248.713 194.689 C 247.530 182.380,233.948 175.357,222.758 181.269 M219.792 355.567 C 219.792 358.629,220.086 366.012,220.446 371.973 L 221.100 382.813 200.133 383.080 L 179.167 383.348 179.167 366.674 L 179.167 350.000 199.479 350.000 L 219.792 350.000 219.792 355.567 " stroke="none" fill="url(#gradient)" fill-rule="evenodd"></path>
    </g>
</svg>